<?xml version="1.0" encoding="UTF-8" standalone="no"?>
<svg
   xmlns:dc="http://purl.org/dc/elements/1.1/"
   xmlns:cc="http://creativecommons.org/ns#"
   xmlns:rdf="http://www.w3.org/1999/02/22-rdf-syntax-ns#"
   xmlns:svg="http://www.w3.org/2000/svg"
   xmlns="http://www.w3.org/2000/svg"
   xmlns:sodipodi="http://sodipodi.sourceforge.net/DTD/sodipodi-0.dtd"
   xmlns:inkscape="http://www.inkscape.org/namespaces/inkscape"
   width="90mm"
   height="90mm"
   viewBox="0 0 90 90"
   version="1.1"
   id="svg8"
   inkscape:version="1.0.2 (e86c870879, 2021-01-15)"
   sodipodi:docname="logo fixed double12123.svg">
  <defs
     id="defs2" />
  <sodipodi:namedview
     id="base"
     pagecolor="#ffffff"
     bordercolor="#666666"
     borderopacity="1.0"
     inkscape:pageopacity="0.0"
     inkscape:pageshadow="2"
     inkscape:zoom="1.7582312"
     inkscape:cx="229.00436"
     inkscape:cy="158.11194"
     inkscape:document-units="mm"
     inkscape:current-layer="layer1"
     inkscape:document-rotation="0"
     showgrid="true"
     inkscape:window-width="1920"
     inkscape:window-height="1017"
     inkscape:window-x="1912"
     inkscape:window-y="-8"
     inkscape:window-maximized="1"
     inkscape:snap-page="true">
    <sodipodi:guide
       position="54.239585,87.354169"
       orientation="0,793.70079"
       id="guide967" />
    <sodipodi:guide
       position="210,297"
       orientation="1122.5197,0"
       id="guide969" />
    <sodipodi:guide
       position="210,0"
       orientation="0,-793.70079"
       id="guide971" />
    <sodipodi:guide
       position="-54.572259,97.000002"
       orientation="-1122.5197,0"
       id="guide973" />
    <inkscape:grid
       type="xygrid"
       id="grid999" />
  </sodipodi:namedview>
  <metadata
     id="metadata5">
    <rdf:RDF>
      <cc:Work
         rdf:about="">
        <dc:format>image/svg+xml</dc:format>
        <dc:type
           rdf:resource="http://purl.org/dc/dcmitype/StillImage" />
        <dc:title />
      </cc:Work>
    </rdf:RDF>
  </metadata>
  <g
     inkscape:label="Layer 1"
     inkscape:groupmode="layer"
     id="layer1">
    <g
       id="g84"
       transform="matrix(0.26458333,0,0,0.26458333,-66.923707,-69.902962)">
      <g
         id="g51">
        <g
           id="g47" />
      </g>
    </g>
    <path
       style="fill:#a0a0a0;stroke:none;stroke-width:0.201207"
       d=""
       id="path921"
       transform="scale(0.26458333)" />
    <path
       style="fill:#a0a0a0;stroke:none;stroke-width:0.201207"
       d=""
       id="path927"
       transform="scale(0.26458333)" />
    <path
       style="fill:#a0a0a0;stroke:none;stroke-width:0.201207"
       d=""
       id="path931"
       transform="scale(0.26458333)" />
    <path
       style="fill:#a0a0a0;stroke:none;stroke-width:0.201207"
       d=""
       id="path933"
       transform="scale(0.26458333)" />
    <path
       style="fill:#a0a0a0;stroke:none;stroke-width:0.201207"
       d=""
       id="path935"
       transform="scale(0.26458333)" />
    <path
       style="fill:#a0a0a0;stroke:none;stroke-width:0.201207"
       d=""
       id="path937"
       transform="scale(0.26458333)" />
    <path
       style="fill:#a0a0a0;stroke:none;stroke-width:0.201207"
       d=""
       id="path939"
       transform="scale(0.26458333)" />
    <path
       style="fill:#a0a0a0;stroke:none;stroke-width:0.201207"
       d=""
       id="path943"
       transform="scale(0.26458333)" />
    <path
       style="fill:#a0a0a0;stroke:none;stroke-width:0.201207"
       d=""
       id="path947"
       transform="scale(0.26458333)" />
    <path
       style="fill:#a0a0a0;stroke:none;stroke-width:0.201207"
       d=""
       id="path949"
       transform="scale(0.26458333)" />
    <g
       id="g1047"
       transform="translate(3.9687505,29.104167)">
      <path
         id="path1041"
         style="fill:#fc007a;fill-opacity:1;stroke-width:0.999999"
         d="m 115,25 a 74.999999,74.999999 0 0 0 -75,75 74.999999,74.999999 0 0 0 75,75 74.999999,74.999999 0 0 0 75,-75 74.999999,74.999999 0 0 0 -75,-75 z m -0.0527,25 A 49.999993,49.999993 0 0 1 115,50 h 50 V 99.947266 A 49.999993,49.999993 0 0 1 165,100 49.999993,49.999993 0 0 1 115,150 49.999993,49.999993 0 0 1 65,100 49.999993,49.999993 0 0 1 114.94727,50 Z"
         transform="scale(0.26458333)" />
      <path
         id="rect1043"
         style="fill:#fc007a;fill-opacity:1;stroke-width:0.999999"
         d="m 115,25 v 25 h 50 v 50 h 25 V 25 Z"
         transform="scale(0.26458333)" />
    </g>
    <g
       id="g42"
       transform="translate(3.9687505,29.104167)">
      <circle
         style="fill:#fc007a;fill-opacity:1;stroke-width:0.264583"
         id="path1168"
         sodipodi:type="arc"
         sodipodi:cx="30.427082"
         sodipodi:cy="26.458332"
         sodipodi:rx="9.260417"
         sodipodi:ry="9.260417"
         sodipodi:start="4.8356382e-05"
         sodipodi:end="6.3804656e-06"
         sodipodi:arc-type="slice"
         d="m 39.687499,26.45878 a 9.260417,9.260417 0 0 1 -9.260768,9.259969 9.260417,9.260417 0 0 1 -9.260066,-9.26067 9.260417,9.260417 0 0 1 9.260573,-9.260164 9.260417,9.260417 0 0 1 9.260261,9.260476 l -9.260417,-5.9e-5 z" />
      <rect
         style="fill:#fc007a;fill-opacity:1;stroke-width:0.264583"
         id="rect1170"
         width="9.2604179"
         height="9.260417"
         x="30.427082"
         y="17.197916" />
    </g>
    <path
       id="path1206"
       style="fill:#2d27ff;fill-opacity:1;stroke-width:0.264583"
       d="m 59.463554,21.166667 a 9.2604168,9.2604168 0 0 0 -9.192721,9.260416 9.2604168,9.2604168 0 0 0 0.0956,1.322917 h 7.841898 v 7.842415 a 9.2604168,9.2604168 0 0 0 1.322917,0.09508 9.2604168,9.2604168 0 0 0 9.260417,-9.260417 9.2604168,9.2604168 0 0 0 -9.260417,-9.260416 9.2604168,9.2604168 0 0 0 -0.0677,0 z" />
    <path
       style="fill:#2d27ff;stroke:none;stroke-width:0.701507;fill-opacity:1"
       d="m 220.04656,134.71647 v -14.73165 h -14.73164 -14.73164 v -5.13397 c 0,-12.51734 7.13158,-24.421002 18.05428,-30.135256 6.26955,-3.279939 9.66528,-4.111037 16.6905,-4.084965 13.55737,0.05032 24.99306,7.501112 31.03279,20.219071 2.30579,4.85534 2.6123,6.16444 2.85436,12.19113 0.40588,10.10517 -2.17716,17.72678 -8.39882,24.78192 -6.39557,7.25233 -16.01873,11.62536 -25.58242,11.62536 h -5.18741 z"
       id="path1221"
       transform="scale(0.26458333)" />
    <path
       style="fill:#2d27ff;stroke:none;stroke-width:0.701507;fill-opacity:1"
       d="m 220.04656,134.71647 v -14.73165 h -14.73164 -14.73164 l 0.0217,-1.92914 c 0.12448,-11.08753 4.21022,-21.298746 11.05931,-27.63979 10.53895,-9.757217 25.13841,-12.139809 37.91625,-6.187831 6.00269,2.796084 13.00877,9.887914 16.26623,16.465331 2.24244,4.52789 2.45049,5.49967 2.6699,12.4707 0.29916,9.50505 -1.23981,15.21467 -5.75368,21.34633 -7.10676,9.65385 -17.66398,14.76869 -30.78725,14.91603 l -1.92914,0.0217 z"
       id="path1223"
       transform="scale(0.26458333)" />
    <path
       style="fill:#2d27ff;stroke:none;stroke-width:0.701507;fill-opacity:1"
       d="m 220.04656,134.71647 v -14.73165 h -14.73164 -14.73164 l 0.0139,-2.27989 c 0.0644,-10.5625 4.31123,-21.034317 11.06708,-27.28904 10.57347,-9.789176 25.09656,-12.159305 37.91625,-6.187831 6.00504,2.797177 13.00984,9.888631 16.26413,16.465331 2.21873,4.4839 2.45115,5.54696 2.67504,12.23545 0.29837,8.91319 -0.99461,14.41064 -4.75929,20.23532 -6.57264,10.16916 -18.18321,16.10958 -31.78468,16.26229 l -1.92914,0.0217 z"
       id="path1225"
       transform="scale(0.26458333)" />
    <path
       style="fill:#2d27ff;stroke:none;stroke-width:0.701507;fill-opacity:1"
       d="m 220.04656,134.71647 v -14.73165 h -14.73164 -14.73164 l 0.005,-2.63065 c 0.0116,-5.74339 1.49822,-11.90948 4.20869,-17.45618 8.13395,-16.645293 27.90054,-23.564562 44.78324,-15.676314 6.06014,2.83153 13.10477,9.94261 16.29852,16.452254 2.1836,4.4507 2.42155,5.55237 2.64276,12.23546 0.29573,8.93447 -0.99583,14.42871 -4.7614,20.25477 -6.49587,10.05039 -18.35837,16.19036 -31.43392,16.27005 l -2.2799,0.0139 z"
       id="path1227"
       transform="scale(0.26458333)" />
    <path
       style="fill:#2d27ff;stroke:none;stroke-width:0.0876883;fill-opacity:1"
       d="m 226.48939,149.25115 c 13.05797,-1.51107 23.76667,-8.56773 29.08036,-19.16292 2.46336,-4.9118 3.30374,-10.19074 2.94298,-18.48659 -0.18632,-4.28449 -0.45016,-5.96994 -1.25128,-7.99326 -0.40256,-1.0167 -1.43594,-3.19316 -1.97762,-4.165196 -2.75661,-4.946626 -7.56369,-10.137364 -12.34222,-13.32726 -1.61126,-1.075595 -2.69403,-1.66805 -4.33739,-2.373284 -8.22007,-3.527572 -17.38032,-3.739537 -25.60818,-0.592566 -8.21683,3.142754 -14.85387,9.373241 -18.57061,17.433056 -1.96178,4.25417 -3.16949,8.57021 -3.69279,13.1971 -0.0668,0.59098 -0.0755,0.61276 -0.0857,0.21483 -0.006,-0.24356 0.0299,-0.97357 0.0805,-1.62224 0.66648,-8.55756 4.49864,-16.549519 10.7815,-22.484844 2.43256,-2.298009 4.77354,-3.917943 8.11117,-5.612856 5.48264,-2.784192 8.81016,-3.569502 15.12624,-3.569861 2.8833,-1.64e-4 4.2794,0.106636 6.57662,0.503106 10.63324,1.83515 19.49163,8.648506 24.6201,18.936325 2.41646,4.84746 2.90811,6.65314 3.17548,11.66255 0.31713,5.94147 -0.22314,10.54675 -1.76068,15.00826 -2.45818,7.13295 -8.1488,13.90144 -15.02336,17.86897 -4.89404,2.82451 -10.52429,4.50231 -15.61517,4.65328 l -1.31533,0.039 z"
       id="path1229"
       transform="scale(0.26458333)" />
    <path
       style="fill:#2d27ff;stroke:none;stroke-width:0.0876883;fill-opacity:1"
       d=""
       id="path1231"
       transform="scale(0.26458333)" />
    <path
       style="fill:#2d27ff;stroke:none;stroke-width:0.0438442;fill-opacity:1"
       d="m 190.61432,114.51669 c 0.0216,-1.30018 0.0636,-2.05593 0.172,-3.09101 0.99245,-9.47714 5.95942,-18.272235 13.52347,-23.946261 1.71993,-1.290173 3.31671,-2.251607 5.69974,-3.431855 4.49267,-2.225095 7.34064,-3.023831 11.83792,-3.320042 1.29006,-0.08497 4.95619,-0.07235 6.0505,0.02083 3.17256,0.270132 5.78418,0.803524 8.52769,1.741681 1.12438,0.384486 3.27731,1.266935 3.41154,1.39833 0.0196,0.01913 0.0294,0.123429 0.0219,0.23177 l -0.0136,0.196985 -0.52613,-0.238984 c -3.70032,-1.680794 -7.3627,-2.644204 -11.46525,-3.016002 -1.05964,-0.09603 -3.44894,-0.132448 -4.53788,-0.06917 -4.87539,0.283324 -9.21652,1.437445 -13.46016,3.578484 -1.35898,0.685647 -2.13392,1.135299 -3.39792,1.971624 -5.61555,3.715521 -9.83305,8.849593 -12.58034,15.31438 -1.77317,4.17254 -2.90868,8.74872 -3.20105,12.90039 -0.0765,1.08682 -0.084,1.05809 -0.0624,-0.24115 z"
       id="path1233"
       transform="scale(0.26458333)" />
    <path
       id="path50"
       style="fill:#fc007a;fill-opacity:1;stroke-width:0.999999"
       d="M 129.74609 175 A 35.000001 35.000001 0 0 0 95 210 A 35.000001 35.000001 0 0 0 129.99805 245 A 35.000001 35.000001 0 0 0 165 210.00195 L 130 210 L 165 210 A 35.000001 35.000001 0 0 0 130 175 A 35.000001 35.000001 0 0 0 129.74609 175 z "
       transform="scale(0.26458333)" />
  </g>
  <style
     type="text/css"
     id="style41">
	.st0{fill:#40AE48;}
	.st1{fill:#00AEEF;}
	.st2{fill:#40AD48;}
</style>
</svg>
