<?xml version="1.0" encoding="UTF-8" standalone="no"?>
<svg
   xmlns:dc="http://purl.org/dc/elements/1.1/"
   xmlns:cc="http://creativecommons.org/ns#"
   xmlns:rdf="http://www.w3.org/1999/02/22-rdf-syntax-ns#"
   xmlns:svg="http://www.w3.org/2000/svg"
   xmlns="http://www.w3.org/2000/svg"
   xmlns:sodipodi="http://sodipodi.sourceforge.net/DTD/sodipodi-0.dtd"
   xmlns:inkscape="http://www.inkscape.org/namespaces/inkscape"
   width="90mm"
   height="90mm"
   viewBox="0 0 90 90"
   version="1.1"
   id="svg8"
   inkscape:version="1.0.2 (e86c870879, 2021-01-15)"
   sodipodi:docname="logo.svg">
  <defs
     id="defs2" />
  <sodipodi:namedview
     id="base"
     pagecolor="#ffffff"
     bordercolor="#666666"
     borderopacity="1.0"
     inkscape:pageopacity="0.0"
     inkscape:pageshadow="2"
     inkscape:zoom="1.6366351"
     inkscape:cx="230.65512"
     inkscape:cy="205.19591"
     inkscape:document-units="mm"
     inkscape:current-layer="layer1"
     inkscape:document-rotation="0"
     showgrid="true"
     inkscape:window-width="1920"
     inkscape:window-height="1017"
     inkscape:window-x="1912"
     inkscape:window-y="-8"
     inkscape:window-maximized="1">
    <sodipodi:guide
       position="0,297"
       orientation="0,793.70079"
       id="guide967" />
    <sodipodi:guide
       position="210,297"
       orientation="1122.5197,0"
       id="guide969" />
    <sodipodi:guide
       position="210,0"
       orientation="0,-793.70079"
       id="guide971" />
    <sodipodi:guide
       position="-54.572259,97.000002"
       orientation="-1122.5197,0"
       id="guide973" />
    <inkscape:grid
       type="xygrid"
       id="grid999" />
  </sodipodi:namedview>
  <metadata
     id="metadata5">
    <rdf:RDF>
      <cc:Work
         rdf:about="">
        <dc:format>image/svg+xml</dc:format>
        <dc:type
           rdf:resource="http://purl.org/dc/dcmitype/StillImage" />
        <dc:title></dc:title>
      </cc:Work>
    </rdf:RDF>
  </metadata>
  <g
     inkscape:label="Layer 1"
     inkscape:groupmode="layer"
     id="layer1">
    <g
       id="g84"
       transform="matrix(0.26458333,0,0,0.26458333,-64.059833,-92.553127)">
      <g
         id="g51">
	<g
   id="g47">
		
		<path
   class="st1"
   d="m 514.38591,450.1471 c 0.59,-20.33 -14.92,-39.39 -34.75,-43.45 -15.73,-3.62 -33.2,2.01 -43.59,14.41 -6.97,7.95 -10.73,18.44 -10.84,28.97 -0.02,3.24 -0.01,6.49 -0.01,9.73 h 36.92 v 35.05 c 2.6,0 5.19,0.01 7.79,0 5.24,-0.01 10.5,-0.82 15.42,-2.67 17.13,-6.16 29.69,-23.69 29.06,-42.04 z"
   id="path45"
   style="fill:#2d27ff;fill-opacity:1" />

	</g>

	
</g>
    </g>
    <path
       style="fill:#fc007a;fill-opacity:1;stroke:none;stroke-width:0.213374"
       d="m 32.179947,71.619296 c -5.582285,-0.64125 -10.539925,-3.6242 -13.505907,-8.126362 -5.643282,-8.56611 -3.518173,-19.846271 4.800515,-25.481303 1.704711,-1.154761 3.589888,-2.090018 5.094415,-2.527395 2.970987,-0.86369 4.500004,-0.98276 14.185471,-1.104688 l 9.464694,-0.11915 -0.10832,10.534525 c -0.10604,10.312641 -0.24329,12.590883 -0.891726,14.801996 -1.039112,3.543285 -5.656885,8.331407 -9.991037,10.359597 -1.581182,0.73993 -4.866672,1.60731 -6.55138,1.72959 -0.645456,0.0469 -1.768983,0.0168 -2.496725,-0.0668 z m 6.21479,-6.24863 c 2.950795,-0.809342 5.55589,-2.981533 6.839352,-5.702807 1.49565,-3.171177 1.816878,-5.481574 1.878846,-13.51348 l 0.0461,-5.974461 -4.587534,-0.06374 c -5.666861,-0.07873 -10.927119,0.236662 -12.828629,0.769189 -4.91988,1.377831 -8.722395,6.225876 -9.083829,11.581495 -0.351345,5.206137 2.59569,10.190982 7.509738,12.702544 l 1.493615,0.76339 3.734038,-0.10768 c 2.479088,-0.0715 4.158938,-0.22423 4.998307,-0.45445 z"
       id="path913" />
    <path
       style="fill:#a0a0a0;stroke:none;stroke-width:0.201207"
       d=""
       id="path921"
       transform="scale(0.26458333)" />
    <path
       style="fill:#a0a0a0;stroke:none;stroke-width:0.201207"
       d=""
       id="path927"
       transform="scale(0.26458333)" />
    <path
       style="fill:#a0a0a0;stroke:none;stroke-width:0.201207"
       d=""
       id="path931"
       transform="scale(0.26458333)" />
    <path
       style="fill:#a0a0a0;stroke:none;stroke-width:0.201207"
       d=""
       id="path933"
       transform="scale(0.26458333)" />
    <path
       style="fill:#a0a0a0;stroke:none;stroke-width:0.201207"
       d=""
       id="path935"
       transform="scale(0.26458333)" />
    <path
       style="fill:#a0a0a0;stroke:none;stroke-width:0.201207"
       d=""
       id="path937"
       transform="scale(0.26458333)" />
    <path
       style="fill:#a0a0a0;stroke:none;stroke-width:0.201207"
       d=""
       id="path939"
       transform="scale(0.26458333)" />
    <path
       style="fill:#a0a0a0;stroke:none;stroke-width:0.201207"
       d=""
       id="path943"
       transform="scale(0.26458333)" />
    <g
       id="g989"
       transform="translate(-23.674914,14.298129)">
      <path
         class="st2"
         d="m 466.2,382.21 c -3.67,0 -7.36,0.56 -10.81,1.86 -12.02,4.31 -20.84,16.58 -20.41,29.44 -0.43,14.24 10.42,27.61 24.3,30.48 11.02,2.55 23.27,-1.38 30.56,-10.05 4.9,-5.56 7.54,-12.91 7.63,-20.29 0.07,-10.48 0.02,-20.97 0.08,-31.47 0.04,0 0.08,0 0.11,0 l -0.25,-0.23 c 0,0.1 0,0.19 0,0.29 -10.39,0.03 -20.8,-0.03 -31.21,-0.03 z"
         id="path49"
         style="fill:#ff0a6c;fill-opacity:1"
         transform="matrix(0.26458333,0,0,0.26458333,-66.923706,-69.902962)" />
      <path
         style="fill:#fc007a;fill-opacity:1;stroke:none;stroke-width:0.755952"
         d="m 51.831496,56.528127 c -14.16754,-4.39911 -17.37669,-23.783184 -5.380463,-32.499379 4.714938,-3.425772 8.10047,-4.136663 19.700335,-4.136663 h 9.870601 v 11.062592 c 0,6.515462 -0.3798,12.341537 -0.92401,14.174107 -1.355524,4.564541 -6.951408,9.879313 -11.971522,11.370133 -4.791065,1.42279 -6.790185,1.42796 -11.294941,0.0292 z m 13.370192,-6.985182 c 4.083571,-2.907753 5.528617,-7.064786 5.528617,-15.904414 v -7.698827 h -7.888287 c -8.680427,0 -11.075699,0.608816 -14.316422,3.638864 -6.047113,5.654003 -5.417849,15.017975 1.339943,19.939447 2.825813,2.057942 3.535823,2.233602 8.030495,1.986832 3.581702,-0.19665 5.580372,-0.73338 7.305654,-1.961902 z"
         id="path86" />
      <path
         style="fill:#fc007a;fill-opacity:1;stroke:none;stroke-width:0.755952"
         d="m 55.148429,46.530586 c -0.878218,-0.141917 -2.571379,-1.275315 -3.762581,-2.518661 -3.169923,-3.308686 -3.053961,-7.606011 0.285768,-10.590059 2.208832,-1.97359 2.974396,-2.190496 7.731332,-2.190496 h 5.279739 v 5.249513 c 0,4.363567 -0.287055,5.577822 -1.700893,7.194865 -1.797198,2.055503 -5.17099,3.285067 -7.833365,2.854838 z"
         id="path88" />
      <path
         style="fill:#fc007a;fill-opacity:1;stroke:none;stroke-width:0.213374"
         d="m 53.881572,45.801628 c -1.602335,-0.918792 -3.222442,-2.603971 -3.970702,-4.130189 -0.815986,-1.664358 -0.87833,-3.913526 -0.152466,-5.500454 0.648374,-1.417521 2.645068,-3.444724 4.091826,-4.154347 1.175226,-0.57644 1.269251,-0.586904 5.959655,-0.663192 l 4.765587,-0.07751 -0.09097,4.771006 c -0.104386,5.474719 -0.203446,5.919214 -1.678958,7.533659 -1.652154,1.80772 -4.112657,2.886093 -6.587697,2.887212 -0.924642,5.3e-4 -1.420166,-0.14088 -2.336276,-0.666183 z"
         id="path915" />
      <path
         style="fill:#fc007a;fill-opacity:1;stroke:none;stroke-width:0.213374"
         d="M 54.031885,45.723041 C 52.702002,45.016355 50.935937,43.22379 50.1367,41.769409 c -0.56968,-1.036656 -0.64012,-1.364421 -0.64012,-2.978515 0,-2.248868 0.342601,-3.025619 2.128081,-4.824822 2.170689,-2.187366 2.416296,-2.263627 7.980193,-2.477844 2.625661,-0.10109 4.801954,-0.155657 4.836207,-0.121261 0.03425,0.0344 -0.0099,2.232281 -0.09825,4.884195 -0.144774,4.348784 -0.206825,4.917315 -0.632693,5.797042 -0.629713,1.300816 -2.085461,2.604447 -3.826597,3.426743 -1.167574,0.551418 -1.73387,0.683323 -3.132243,0.729596 -1.479243,0.04895 -1.842064,-0.01529 -2.719398,-0.481502 z"
         id="path917" />
      <g
         id="g993">
        <path
           class="st0"
           d="m 542.72408,338.75308 c -24.91,-0.04 -49.81,0 -74.72,-0.04 -21.62,0.4 -42.56,11.66 -55.35,29.01 -9.55,12.67 -14.55,28.59 -14.17,44.45 0.15,20.79 10.05,41.21 26.13,54.36 14.92,12.51 35.12,18.42 54.43,16.01 16.22,-1.79 31.85,-9.3 43.12,-21.16 13.32,-13.12 20.68,-31.79 20.74,-50.41 0.02,-24.02 0.01,-48.04 0.01,-72.07 l -0.2,-0.18 c 0.01,0.01 0.01,0.02 0.01,0.03 z m -24.48,75.8 c -0.82,13.12 -7.41,25.67 -17.55,33.98 -13.91,11.74 -34.68,14.33 -51.04,6.38 -15.18,-6.97 -26.01,-22.38 -27.48,-39.01 -2.26,-20.27 10.16,-40.95 28.92,-48.77 6.46,-2.93 13.56,-4.07 20.62,-4.11 15.66,-0.04 31.31,0.09 46.96,-0.05 -0.76,17.18 0.06,34.4 -0.43,51.58 z"
           id="path43"
           style="fill:#fc007a;fill-opacity:1"
           transform="matrix(0.26458333,0,0,0.26458333,-66.923706,-69.902962)" />
        <path
           style="fill:#fc007a;fill-opacity:1;stroke:none;stroke-width:0.053236"
           d="m 56.31218,57.337267 c -2.40426,-0.1875 -5.231648,-1.03994 -7.432754,-2.24094 -1.611479,-0.87928 -2.862985,-1.81676 -4.182404,-3.13297 -1.034512,-1.032 -1.530733,-1.627542 -2.257761,-2.709682 -1.675987,-2.494626 -2.706229,-5.268804 -3.096437,-8.337901 -0.116559,-0.916784 -0.132162,-3.162033 -0.02811,-4.045943 0.613834,-5.214564 3.135403,-9.640543 7.217939,-12.669276 1.75255,-1.300173 4.074226,-2.504109 5.795309,-3.005233 3.020354,-0.87943 4.627129,-0.985311 16.994121,-1.119846 2.752305,-0.02994 5.345568,-0.06402 5.762806,-0.07573 l 0.75861,-0.0213 v 1.488075 c 0,2.222769 -0.0986,10.956641 -0.16037,14.205484 -0.11291,5.938528 -0.2896,7.935658 -0.861906,9.742204 -1.224685,3.865836 -6.484141,8.985278 -10.902603,10.612358 -1.192364,0.43909 -3.152675,0.95953 -4.471832,1.18724 -0.87908,0.15174 -2.136738,0.20127 -3.134606,0.12345 z m -0.416837,-5.74717 c 5.093795,-0.15671 6.130205,-0.3053 7.863064,-1.127362 1.210662,-0.57432 2.127771,-1.21667 3.06559,-2.147145 1.007988,-1.000093 1.658731,-1.939488 2.251874,-3.250748 0.614516,-1.358511 0.951566,-2.432679 1.201658,-3.82965 0.384828,-2.149586 0.49158,-4.296807 0.544274,-10.947707 l 0.03486,-4.399666 -0.50111,-0.03125 c -1.081199,-0.06742 -6.861194,-0.0917 -8.752703,-0.03677 -4.728289,0.137308 -7.284381,0.409144 -8.813678,0.937321 -1.632749,0.563904 -3.083298,1.477108 -4.43484,2.791981 -2.170792,2.111899 -3.495029,4.696264 -3.955756,7.720005 -0.126918,0.832971 -0.127487,2.607442 -0.0011,3.463451 0.326109,2.208855 1.182573,4.253399 2.552131,6.092425 0.586436,0.787461 1.921023,2.118463 2.728365,2.721043 0.787363,0.58766 1.316527,0.91014 2.581952,1.573492 l 0.984866,0.51628 0.467882,0.004 c 0.257333,0.002 1.239538,-0.0202 2.182677,-0.0492 z"
           id="path919" />
      </g>
      <path
         style="fill:#fc007a;fill-opacity:1;stroke:none;stroke-width:0.053236"
         d="m 53.005222,51.429897 c -0.330684,-0.17469 -0.308261,-0.19616 0.07985,-0.0764 0.146399,0.0452 0.469807,0.11444 0.718688,0.15397 l 0.452506,0.0719 -0.479126,0.003 c -0.429032,0.002 -0.509736,-0.0135 -0.771922,-0.15205 z"
         id="path923" />
      <path
         style="fill:#fc007a;fill-opacity:1;stroke:none;stroke-width:0.053236"
         d="m 53.13831,51.458447 c -0.205914,-0.0943 -0.126979,-0.0957 0.239564,-0.004 0.257803,0.0643 0.270529,0.0733 0.106471,0.0752 -0.102478,0.001 -0.258193,-0.0308 -0.346035,-0.071 z"
         id="path925" />
      <path
         style="fill:#fc007a;fill-opacity:1;stroke:none;stroke-width:0.053236"
         d="m 50.210328,55.908947 c -1.166572,-0.49334 -2.65924,-1.33251 -3.593436,-2.02022 -1.01891,-0.75008 -2.19746,-1.83913 -2.977748,-2.75162 -2.403133,-2.810312 -3.844025,-6.093561 -4.403968,-10.035006 -0.135059,-0.950685 -0.136271,-3.784555 -0.0021,-4.732189 0.384813,-2.716297 1.147318,-4.924266 2.466695,-7.142745 1.130906,-1.901568 2.785903,-3.702002 4.704098,-5.117478 3.496051,-2.579809 6.322968,-3.558508 11.419139,-3.953385 2.262836,-0.17534 3.442441,-0.199015 10.59398,-0.212643 3.982061,-0.0076 7.060431,-0.0067 6.840841,0.0021 -0.2196,0.0087 -2.735008,0.04176 -5.589793,0.07345 -10.254194,0.113834 -12.803129,0.209809 -14.93579,0.56238 -2.521408,0.41684 -4.564544,1.206016 -6.934343,2.67844 -4.106598,2.551549 -6.976417,6.500903 -8.102785,11.150796 -0.375729,1.551091 -0.503576,2.674408 -0.50102,4.402185 0.0045,3.023394 0.598368,5.559832 1.938298,8.278209 0.990703,2.009884 1.966938,3.382474 3.485239,4.900286 0.950844,0.95053 1.666669,1.5346 2.83505,2.31326 0.777415,0.51809 2.145546,1.25683 3.07698,1.66144 0.175678,0.0763 0.283483,0.14025 0.239562,0.14208 -0.04392,0.002 -0.29546,-0.0878 -0.558977,-0.19928 z"
         id="path929" />
      <path
         style="fill:#fc007a;fill-opacity:1;stroke:none;stroke-width:0.053236"
         d="m 53.957188,51.479437 c -1.351331,-0.19859 -2.285953,-0.66388 -4.18909,-2.085522 -2.913547,-2.176412 -4.726252,-5.17947 -5.262174,-8.717703 -0.129481,-0.854861 -0.127235,-2.564453 0.0045,-3.433728 0.210495,-1.388838 0.580647,-2.567636 1.203595,-3.832998 0.683501,-1.388364 1.469671,-2.455777 2.666622,-3.62059 1.721273,-1.67505 3.11024,-2.528083 4.973029,-3.054175 0.813652,-0.229793 0.923938,-0.204033 0.183901,0.04295 -2.047581,0.683382 -3.68,1.704698 -5.166016,3.232097 -1.048499,1.077699 -1.743154,2.064166 -2.394027,3.399716 -0.853908,1.752166 -1.277146,3.557085 -1.277146,5.446443 0,2.645084 0.694642,4.947481 2.155343,7.143893 1.861024,2.798365 4.677461,4.719085 7.959511,5.428147 l 0.452506,0.0978 -0.50574,-0.001 c -0.278159,-5.3e-4 -0.640332,-0.0209 -0.804826,-0.0451 z"
         id="path941" />
      <path
         style="fill:#fc007a;fill-opacity:1;stroke:none;stroke-width:0.053236"
         d="m 47.894557,30.105883 c 0,-0.06938 0.680889,-0.744646 0.715722,-0.709814 0.01461,0.0146 -0.140452,0.1923 -0.34458,0.394862 -0.204126,0.202565 -0.371142,0.344294 -0.371142,0.314952 z"
         id="path945" />
    </g>
    <path
       style="fill:#a0a0a0;stroke:none;stroke-width:0.201207"
       d=""
       id="path947"
       transform="scale(0.26458333)" />
    <path
       style="fill:#a0a0a0;stroke:none;stroke-width:0.201207"
       d=""
       id="path949"
       transform="scale(0.26458333)" />
  </g>
  <style
     type="text/css"
     id="style41">
	.st0{fill:#40AE48;}
	.st1{fill:#00AEEF;}
	.st2{fill:#40AD48;}
</style>
</svg>
